/* XPM */
static const char *left_active[] = {
/* columns rows colors chars-per-pixel */
"3 16 2 1 ",
"  c #444444 s active_shadow_1",
". c #555555 s active_color_1",
/* pixels */
" ..",
" ..",
" ..",
" ..",
" ..",
" ..",
" ..",
" ..",
" ..",
" ..",
" ..",
" ..",
" ..",
" ..",
" ..",
" .."
};
