/* XPM */
static const char *shade_prelight[] = {
/* columns rows colors chars-per-pixel */
"26 32 3 1 ",
"  c #444444 s active_shadow_1",
". c #555555 s active_color_1",
"X c #EEEEEE s active_text_color",
/* pixels */
"..........................",
"..........................",
"..........................",
"..........................",
"..........................",
"...XXXXXXXXXXXXXXXXXXXX...",
"..XXXXXXXXXXXXXXXXXXXXXX..",
"..XXXXXXXXXXXXXXXXXXXXXX..",
"..XXXXXXXXXXXXXXXXXXXXXX..",
"..XXXXXXXXXXXXXXXXXXXXXX..",
"..XXXXXXXXXXXXXXXXXXXXXX..",
"..XXXXXXXXXXXXXXXXXXXXXX..",
"..XXXXXXXXXXXXXXXXXXXXXX..",
"..XXXXXXXXXX..XXXXXXXXXX..",
"..XXXXXXXXX....XXXXXXXXX..",
"..XXXXXXXX......XXXXXXXX..",
"..XXXXXXX...XX...XXXXXXX..",
"..XXXXXX...XXXX...XXXXXX..",
"..XXXXX...XXXXXX...XXXXX..",
"..XXXX...XXXXXXXX...XXXX..",
"..XXXXX.XXXXXXXXXX.XXXXX..",
"..XXXXXXXXXXXXXXXXXXXXXX..",
"..XXXXXXXXXXXXXXXXXXXXXX..",
"..XXXXXXXXXXXXXXXXXXXXXX..",
"..XXXXXXXXXXXXXXXXXXXXXX..",
"..XXXXXXXXXXXXXXXXXXXXXX..",
"...XXXXXXXXXXXXXXXXXXXX...",
"..........................",
"..........................",
"..........................",
"..........................",
".........................."
};
