/* XPM */
static const char *shade_toggled_pressed[] = {
/* columns rows colors chars-per-pixel */
"26 32 3 1 ",
"  c #444444 s active_shadow_1",
". c #555555 s active_color_1",
"X c #EEEEEE s active_text_color",
/* pixels */
"..........................",
"..........................",
"..........................",
"..........................",
"..........................",
"..........................",
"...XXXXXXXXXXXXXXXXXXXX...",
"..XXXXXXXXXXXXXXXXXXXXXX..",
"..XXXXXXXXXXXXXXXXXXXXXX..",
"..XXXXXXXXXXXXXXXXXXXXXX..",
"..XXXXXXXXXXXXXXXXXXXXXX..",
"..XXXXXXXXXXXXXXXXXXXXXX..",
"..XXXXXXXXXXXXXXXXXXXXXX..",
"..XXXXXXXXXXXXXXXXXXXXXX..",
"..XXXXXXXXXXXXXXXXXXXXXX..",
"..XXXXX.XXXXXXXXXX.XXXXX..",
"..XXXX...XXXXXXXX...XXXX..",
"..XXXXX...XXXXXX...XXXXX..",
"..XXXXXX...XXXX...XXXXXX..",
"..XXXXXXX...XX...XXXXXXX..",
"..XXXXXXXX......XXXXXXXX..",
"..XXXXXXXXX....XXXXXXXXX..",
"..XXXXXXXXXX..XXXXXXXXXX..",
"..XXXXXXXXXXXXXXXXXXXXXX..",
"..XXXXXXXXXXXXXXXXXXXXXX..",
"..XXXXXXXXXXXXXXXXXXXXXX..",
"..XXXXXXXXXXXXXXXXXXXXXX..",
"...XXXXXXXXXXXXXXXXXXXX...",
"..........................",
"..........................",
"..........................",
".........................."
};
