/* XPM */
static const char *stick_toggled_inactive[] = {
/* columns rows colors chars-per-pixel */
"26 32 3 1 ",
"  c #222222 s inactive_shadow_2",
". c #777777 s inactive_color_2",
"X c #BBBBBB s inactive_text_color",
/* pixels */
"..........................",
"..........................",
"..........................",
"..........................",
"..........................",
"..........................",
"..........................",
"..........................",
"..........................",
"..........................",
".......XXXXX..XXXXX.......",
".......XXXXX..XXXXX.......",
".......XXXXX..XXXXX.......",
".......XXXXX..XXXXX.......",
".......XXXXX..XXXXX.......",
"..........................",
"..........................",
".......XXXXX..XXXXX.......",
".......XXXXX..XXXXX.......",
".......XXXXX..XXXXX.......",
".......XXXXX..XXXXX.......",
".......XXXXX..XXXXX.......",
"..........................",
"..........................",
"..........................",
"..........................",
"..........................",
"..........................",
"..........................",
"..........................",
"..........................",
".........................."
};
