/* XPM */
static const char *hide_pressed[] = {
/* columns rows colors chars-per-pixel */
"26 32 3 1 ",
"  c #444444 s active_shadow_1",
". c #555555 s active_color_1",
"X c #EEEEEE s active_text_color",
/* pixels */
"..........................",
"..........................",
"..........................",
"..........................",
"..........................",
"..........................",
"..........................",
"..........................",
"..........................",
"..........................",
"..........................",
"....XXXX........XXXX......",
".....XXXX......XXXX.......",
"......XXXX....XXXX........",
".......XXXX..XXXX.........",
"........XXXXXXXX..........",
".........XXXXXX...........",
"..........XXXX............",
"...........XX.............",
"..........................",
"..........................",
"..........................",
"..........................",
"..........................",
"..........................",
"..........................",
"..........................",
"..........................",
"..........................",
"..........................",
"..........................",
".........................."
};
