/* XPM */
static const char *shade_toggled_inactive[] = {
/* columns rows colors chars-per-pixel */
"26 32 3 1 ",
"  c #222222 s inactive_shadow_2",
". c #777777 s inactive_color_2",
"X c #BBBBBB s inactive_text_color",
/* pixels */
"..........................",
"..........................",
"..........................",
"..........................",
"..........................",
"..........................",
"..........................",
"..........................",
"..........................",
"..........................",
"..........................",
"..........................",
"..........................",
"..........................",
".......X..........X.......",
"......XXX........XXX......",
".......XXX......XXX.......",
"........XXX....XXX........",
".........XXX..XXX.........",
"..........XXXXXX..........",
"...........XXXX...........",
"............XX............",
"..........................",
"..........................",
"..........................",
"..........................",
"..........................",
"..........................",
"..........................",
"..........................",
"..........................",
".........................."
};
