/* XPM */
static const char *top_right_active[] = {
/* columns rows colors chars-per-pixel */
"3 48 3 1 ",
"  c #444444 s active_shadow_1",
". c #555555 s active_color_1",
"X c None",
/* pixels */
"   ",
".. ",
".. ",
".. ",
".. ",
".. ",
".. ",
".. ",
".. ",
".. ",
".. ",
".. ",
".. ",
".. ",
".. ",
".. ",
".. ",
".. ",
".. ",
".. ",
".. ",
".. ",
".. ",
".. ",
".. ",
".. ",
".. ",
".. ",
".. ",
".. ",
".. ",
".. ",
".. ",
".. ",
".. ",
".. ",
".. ",
".. ",
".. ",
".. ",
".. ",
".. ",
".. ",
".. ",
".. ",
".. ",
".. ",
".. "
};
